<svg xmlns="http://www.w3.org/2000/svg" width="960" height="600" viewBox="0 0 960 600">
  <rect width="960" height="600" rx="36" fill="#f8fafc"/>
  <g font-family="Arial" text-anchor="middle"><text x="480" y="70" font-size="38" font-weight="700" fill="#0f172a">KittaChat Realtime Architecture</text></g>
  <g fill="#fff" stroke-width="4"><rect x="60" y="235" width="170" height="100" rx="22" stroke="#2563eb"/><rect x="305" y="115" width="350" height="100" rx="22" stroke="#16a34a"/><rect x="305" y="255" width="350" height="100" rx="22" stroke="#16a34a"/><rect x="305" y="395" width="350" height="100" rx="22" stroke="#16a34a"/><rect x="730" y="115" width="170" height="100" rx="22" stroke="#dc2626"/><rect x="730" y="255" width="170" height="100" rx="22" stroke="#f59e0b"/><rect x="730" y="395" width="170" height="100" rx="22" stroke="#7c3aed"/></g>
  <g font-family="Arial" font-size="22" font-weight="700" fill="#334155" text-anchor="middle"><text x="145" y="293">React Client</text><text x="480" y="173">Express + Socket.IO ×3</text><text x="480" y="313">Redis Adapter</text><text x="480" y="453">Background Workers</text><text x="815" y="173">MongoDB</text><text x="815" y="313">RabbitMQ</text><text x="815" y="453">WebRTC</text></g>
  <g stroke="#64748b" stroke-width="8"><path d="M230 285h65"/><path d="M655 165h65"/><path d="M655 305h65"/><path d="M655 445h65"/></g>
</svg>
